<svg id="Livello_1" data-name="Livello 1" xmlns="http://www.w3.org/2000/svg" xmlns:xlink="http://www.w3.org/1999/xlink" viewBox="0 0 294.44 211.86"><defs><style>.cls-1{fill:none;}.cls-2{fill:url(#linear-gradient);}.cls-3{fill:url(#linear-gradient-2);}.cls-4{fill:url(#linear-gradient-3);}.cls-5{fill:url(#linear-gradient-4);}</style><linearGradient id="linear-gradient" x1="231.79" y1="85.13" x2="74.02" y2="242.89" gradientUnits="userSpaceOnUse"><stop offset="0" stop-color="#5c7eb9"/><stop offset="0.2" stop-color="#5b92ba"/><stop offset="0.45" stop-color="#5aa5ba"/><stop offset="0.72" stop-color="#59b0bb"/><stop offset="1" stop-color="#59b4bb"/></linearGradient><linearGradient id="linear-gradient-2" x1="164.38" y1="40.3" x2="141.32" y2="63.37" xlink:href="#linear-gradient"/><linearGradient id="linear-gradient-3" x1="180.98" y1="40.3" x2="157.92" y2="63.37" xlink:href="#linear-gradient"/><linearGradient id="linear-gradient-4" x1="147.78" y1="40.3" x2="124.72" y2="63.37" xlink:href="#linear-gradient"/></defs><title>logo__easyaspie</title><path class="cls-1" d="M287.8,155.09c-13.77-2-19,2.55-29.33,9.76-9.59,6.72-27.38-16.08-44.24-10.55-26.53,8.7-20.05,21.88-50.1,3.61-8.55-5.2-14.32-5.2-22.87,0-30.05,18.27-23.57,5.09-50.1-3.61-16.86-5.53-34.64,17.27-44.23,10.55-10.29-7.2-15.56-11.72-29.33-9.76a3.69,3.69,0,1,0,1.73,7.17c24.91-3.24,17.11,21.63,47.95,5.62,20.71-10.75,17.73-9,39,2.58,21,11.39,34.33-6.21,44.4-8.67a8.08,8.08,0,0,1,4,0c10.06,2.45,23.38,20.05,44.4,8.67,21.28-11.53,18.3-13.33,39-2.58,30.84,16,23-8.87,47.95-5.62a3.69,3.69,0,0,0,1.73-7.17Z" transform="translate(-5.47 -29.77)"/><path class="cls-1" d="M233.84,176.12c-2-1.06-11.56-6.25-13.8-6.1s-14.22,7.36-16.5,8.6c-11.48,6.22-22.84,6.43-34.6,1a111.4,111.4,0,0,1-10.76-6c-1.29-.77-3.94-2.42-5.39-2.73l-.1,0-.1,0c-1.46.31-4.11,2-5.39,2.73a111.4,111.4,0,0,1-10.76,6c-11.76,5.42-23.12,5.21-34.6-1-2.28-1.24-14.32-8.45-16.5-8.6s-11.76,5-13.8,6.1C61,181.61,49.66,185.4,38.92,179.2l21.6,36.72c12.88,21.89,172.33,21.89,185.2,0l22.1-37.56C256.69,185.72,244.86,181.84,233.84,176.12Z" transform="translate(-5.47 -29.77)"/><path class="cls-2" d="M289.55,146a48.67,48.67,0,0,0-7.17-.87c-10.86-3.24-20.92-8.21-30.79-13.78-14.39-8.13-28.07-17.15-43.15-24.07-18.14-8.33-36.22-12.67-56.25-12.58-25.36.11-46.77,7-68.91,18.87-17,9.11-33.37,20.89-51.11,28.24-3,1.25-6.07,2.36-9.19,3.3a48.36,48.36,0,0,0-7.15.87A13,13,0,0,0,21,171.39c.86-.16,1.64-.26,2.35-.32l29.16,49.57C59,231.65,80,235.54,91.6,237.41c20,3.23,41.27,4.22,61.52,4.22s41.51-1,61.52-4.22c11.57-1.87,32.6-5.75,39.09-16.77l29.11-49.48c.48.06,1,.14,1.53.24A13,13,0,0,0,289.55,146Zm-43.82,70c-12.88,21.89-172.33,21.89-185.2,0L38.92,179.2c10.73,6.2,22,2.41,32.62-3.08,2-1.06,11.56-6.25,13.8-6.1s14.22,7.36,16.5,8.6c11.48,6.22,22.84,6.43,34.6,1a111.4,111.4,0,0,0,10.76-6c1.29-.77,3.93-2.42,5.39-2.73l.1,0,.1,0c1.46.31,4.11,2,5.39,2.73a111.4,111.4,0,0,0,10.76,6c11.76,5.42,23.12,5.21,34.6-1,2.28-1.24,14.32-8.45,16.5-8.6s11.76,5,13.8,6.1c11,5.72,22.85,9.6,34,2.24Zm44.79-56.39a3.69,3.69,0,0,1-4.45,2.72c-24.91-3.25-17.11,21.63-47.95,5.62-20.7-10.75-17.73-9-39,2.58-21,11.39-34.34-6.22-44.4-8.67a8.08,8.08,0,0,0-4,0c-10.07,2.45-23.38,20.06-44.4,8.67-21.28-11.53-18.3-13.33-39-2.58-30.84,16-23-8.87-47.95-5.62a3.69,3.69,0,1,1-1.73-7.17c13.77-2,19,2.55,29.33,9.76,9.59,6.72,27.38-16.08,44.23-10.55,26.53,8.7,20.05,21.87,50.1,3.61,8.55-5.2,14.32-5.2,22.87,0,30,18.27,23.57,5.09,50.1-3.61,16.86-5.53,34.65,17.27,44.24,10.55,10.29-7.21,15.56-11.72,29.33-9.76A3.69,3.69,0,0,1,290.52,159.54Z" transform="translate(-5.47 -29.77)"/><path class="cls-3" d="M154.64,32.28A1.49,1.49,0,0,0,153.9,30a2.4,2.4,0,0,0-2.85.59c-13.89,21.73,12,18.69-.06,40.9a1.52,1.52,0,0,0,.93,2.23,2.35,2.35,0,0,0,2.79-.74C167.8,48.82,142.16,51.78,154.64,32.28Z" transform="translate(-5.47 -29.77)"/><path class="cls-4" d="M171.25,32.28A1.49,1.49,0,0,0,170.5,30a2.4,2.4,0,0,0-2.85.59c-13.89,21.73,12,18.69-.06,40.9a1.52,1.52,0,0,0,.93,2.23,2.35,2.35,0,0,0,2.79-.74C184.4,48.82,158.77,51.78,171.25,32.28Z" transform="translate(-5.47 -29.77)"/><path class="cls-5" d="M138,32.28A1.49,1.49,0,0,0,137.3,30a2.4,2.4,0,0,0-2.85.59c-13.89,21.73,12,18.69-.06,40.9a1.52,1.52,0,0,0,.93,2.23,2.35,2.35,0,0,0,2.79-.74C151.2,48.82,125.57,51.78,138,32.28Z" transform="translate(-5.47 -29.77)"/></svg>